<?xml version="1.0" encoding="utf-8"?>
<!-- Generator: Adobe Illustrator 23.1.1, SVG Export Plug-In . SVG Version: 6.00 Build 0)  -->
<svg version="1.1" id="chart" xmlns="http://www.w3.org/2000/svg" xmlns:xlink="http://www.w3.org/1999/xlink" x="0px" y="0px"
	 viewBox="0 0 840 572" style="enable-background:new 0 0 840 572;" xml:space="preserve">
<style type="text/css">
	.st0{fill:#FFFFFF;}
	.st1{fill:#FF8989;}
	.st2{fill:#FFC543;}
	.st3{fill:#FFFF00;}
	.st4{fill:#C8EA00;}
	.st5{fill:#53D000;}
	.st6{fill:none;stroke:#000000;stroke-width:2;}
	.st7{enable-background:new    ;}
	.st8{fill:#FF7E7F;}
	.st9{fill:#B10012;}
	.st10{fill:#FFFF00;stroke:#656314;stroke-miterlimit:10;}
	.st11{fill:#C8EA00;stroke:#1B5A12;stroke-miterlimit:10;}
	.st12{fill:#53D000;stroke:#1B5A12;stroke-miterlimit:10;}
</style>
<rect class="st0" width="840" height="572"/>
<path class="st1" d="M50,522V72h750v450H50z"/>
<path class="st2" d="M50,522L800,72v450H50z"/>
<path class="st3" d="M50,522h750V402L50,522z"/>
<path class="st4" d="M50,522h750v-40L50,522z"/>
<path class="st5" d="M50,522h750v-10L50,522z"/>
<path class="st6" d="M50,72v450h750"/>
<path class="st6" d="M50,520h750"/>
<g class="st7">
	<path d="M700.6,505.8c0-1.4,0.4-2.5,1.1-3.3s1.8-1.2,3-1.2c0.8,0,1.5,0.2,2.1,0.6s1.1,0.9,1.5,1.6s0.5,1.4,0.5,2.3
		c0,0.9-0.2,1.7-0.5,2.3s-0.8,1.2-1.5,1.6s-1.3,0.5-2.1,0.5c-0.8,0-1.5-0.2-2.2-0.6s-1.1-0.9-1.4-1.6S700.6,506.6,700.6,505.8z
		 M701.8,505.8c0,1,0.3,1.9,0.8,2.4s1.3,0.9,2.1,0.9c0.9,0,1.6-0.3,2.1-0.9s0.8-1.5,0.8-2.6c0-0.7-0.1-1.3-0.4-1.8s-0.6-0.9-1-1.2
		s-1-0.4-1.5-0.4c-0.8,0-1.5,0.3-2.1,0.8S701.8,504.5,701.8,505.8z"/>
	<path d="M712.1,512.5c-0.6-0.7-1.1-1.6-1.5-2.6s-0.6-2-0.6-3.1c0-0.9,0.2-1.8,0.5-2.7c0.4-1,0.9-2,1.6-3h0.8
		c-0.5,0.8-0.8,1.4-0.9,1.7c-0.2,0.5-0.4,1.1-0.6,1.7c-0.2,0.7-0.3,1.5-0.3,2.2c0,1.9,0.6,3.8,1.8,5.6H712.1z"/>
	<path d="M714.1,510v-8.6h1.1v8.6H714.1z"/>
	<path d="M716.4,506.9c0-1.2,0.3-2,1-2.6c0.5-0.5,1.2-0.7,2-0.7c0.9,0,1.6,0.3,2.1,0.8s0.8,1.3,0.8,2.3c0,0.8-0.1,1.4-0.4,1.9
		s-0.6,0.8-1,1.1s-1,0.4-1.5,0.4c-0.9,0-1.6-0.3-2.1-0.8S716.4,507.9,716.4,506.9z M717.5,506.9c0,0.8,0.2,1.4,0.5,1.8
		s0.8,0.6,1.3,0.6c0.5,0,1-0.2,1.3-0.6s0.5-1,0.5-1.8c0-0.8-0.2-1.4-0.5-1.7s-0.8-0.6-1.3-0.6c-0.5,0-1,0.2-1.3,0.6
		S717.5,506.1,717.5,506.9z"/>
	<path d="M723.3,510.5l1,0.2c0,0.3,0.2,0.5,0.4,0.7c0.3,0.2,0.6,0.3,1.1,0.3c0.5,0,0.9-0.1,1.1-0.3s0.4-0.5,0.5-0.8
		c0.1-0.2,0.1-0.7,0.1-1.4c-0.5,0.5-1,0.8-1.7,0.8c-0.9,0-1.5-0.3-2-0.9s-0.7-1.4-0.7-2.2c0-0.6,0.1-1.1,0.3-1.6s0.5-0.9,0.9-1.2
		s0.9-0.4,1.4-0.4c0.7,0,1.3,0.3,1.8,0.9v-0.8h1v5.4c0,1-0.1,1.7-0.3,2.1s-0.5,0.7-0.9,1s-1,0.4-1.6,0.4c-0.7,0-1.3-0.2-1.8-0.5
		S723.3,511.2,723.3,510.5z M724.1,506.8c0,0.8,0.2,1.4,0.5,1.8s0.7,0.6,1.2,0.6c0.5,0,0.9-0.2,1.2-0.6s0.5-1,0.5-1.8
		c0-0.8-0.2-1.3-0.5-1.7s-0.7-0.6-1.2-0.6c-0.5,0-0.9,0.2-1.2,0.6S724.1,506,724.1,506.8z"/>
	<path d="M733.5,510v-6.2h0.9v0.9c0.5-0.7,1.1-1,2-1c0.4,0,0.7,0.1,1,0.2s0.5,0.3,0.7,0.5s0.3,0.5,0.3,0.8c0,0.2,0.1,0.5,0.1,1v3.8
		h-1.1v-3.8c0-0.4,0-0.8-0.1-1s-0.2-0.4-0.4-0.5s-0.5-0.2-0.7-0.2c-0.4,0-0.8,0.1-1.2,0.4s-0.5,0.8-0.5,1.6v3.4H733.5z"/>
	<path d="M740.8,512.5h-0.8c1.2-1.9,1.8-3.8,1.8-5.6c0-0.7-0.1-1.5-0.3-2.2c-0.1-0.6-0.3-1.1-0.6-1.7c-0.2-0.4-0.5-0.9-0.9-1.8h0.8
		c0.7,1,1.3,2,1.6,3c0.3,0.9,0.5,1.7,0.5,2.7c0,1.1-0.2,2.1-0.6,3.1S741.4,511.8,740.8,512.5z"/>
	<path d="M744.4,510v-1.2h1.2v1.2c0,0.4-0.1,0.8-0.2,1.1s-0.4,0.5-0.7,0.6l-0.3-0.5c0.2-0.1,0.4-0.2,0.5-0.4s0.2-0.5,0.2-0.8H744.4z
		"/>
	<path d="M750.6,505.8c0-1.4,0.4-2.5,1.1-3.3s1.8-1.2,3-1.2c0.8,0,1.5,0.2,2.1,0.6s1.1,0.9,1.5,1.6s0.5,1.4,0.5,2.3
		c0,0.9-0.2,1.7-0.5,2.3s-0.8,1.2-1.5,1.6s-1.3,0.5-2.1,0.5c-0.8,0-1.5-0.2-2.2-0.6s-1.1-0.9-1.4-1.6S750.6,506.6,750.6,505.8z
		 M751.8,505.8c0,1,0.3,1.9,0.8,2.4s1.3,0.9,2.1,0.9c0.9,0,1.6-0.3,2.1-0.9s0.8-1.5,0.8-2.6c0-0.7-0.1-1.3-0.4-1.8s-0.6-0.9-1-1.2
		s-1-0.4-1.5-0.4c-0.8,0-1.5,0.3-2.1,0.8S751.8,504.5,751.8,505.8z"/>
	<path d="M762.2,512.5c-0.6-0.7-1.1-1.6-1.5-2.6s-0.6-2-0.6-3.1c0-0.9,0.2-1.8,0.5-2.7c0.4-1,0.9-2,1.6-3h0.8
		c-0.5,0.8-0.8,1.4-0.9,1.7c-0.2,0.5-0.4,1.1-0.6,1.7c-0.2,0.7-0.3,1.5-0.3,2.2c0,1.9,0.6,3.8,1.8,5.6H762.2z"/>
	<path d="M767.8,510h-1.1v-6.7c-0.3,0.2-0.6,0.5-1,0.7s-0.8,0.4-1.1,0.5v-1c0.6-0.3,1.1-0.6,1.5-1s0.8-0.8,0.9-1.1h0.7V510z"/>
	<path d="M771.5,512.5h-0.8c1.2-1.9,1.8-3.8,1.8-5.6c0-0.7-0.1-1.5-0.3-2.2c-0.1-0.6-0.3-1.1-0.6-1.7c-0.2-0.4-0.5-0.9-0.9-1.8h0.8
		c0.7,1,1.3,2,1.6,3c0.3,0.9,0.5,1.7,0.5,2.7c0,1.1-0.2,2.1-0.6,3.1S772.1,511.8,771.5,512.5z"/>
</g>
<path class="st6" d="M50,522l750-50"/>
<g class="st7">
	<path d="M760.6,459.8c0-1.4,0.4-2.5,1.1-3.3s1.8-1.2,3-1.2c0.8,0,1.5,0.2,2.1,0.6s1.1,0.9,1.5,1.6s0.5,1.4,0.5,2.3
		c0,0.9-0.2,1.7-0.5,2.3s-0.8,1.2-1.5,1.6s-1.3,0.5-2.1,0.5c-0.8,0-1.5-0.2-2.2-0.6s-1.1-0.9-1.4-1.6S760.6,460.6,760.6,459.8z
		 M761.8,459.8c0,1,0.3,1.9,0.8,2.4s1.3,0.9,2.1,0.9c0.9,0,1.6-0.3,2.1-0.9s0.8-1.5,0.8-2.6c0-0.7-0.1-1.3-0.4-1.8s-0.6-0.9-1-1.2
		s-1-0.4-1.5-0.4c-0.8,0-1.5,0.3-2.1,0.8S761.8,458.5,761.8,459.8z"/>
	<path d="M772.1,466.5c-0.6-0.7-1.1-1.6-1.5-2.6s-0.6-2-0.6-3.1c0-0.9,0.2-1.8,0.5-2.7c0.4-1,0.9-2,1.6-3h0.8
		c-0.5,0.8-0.8,1.4-0.9,1.7c-0.2,0.5-0.4,1.1-0.6,1.7c-0.2,0.7-0.3,1.5-0.3,2.2c0,1.9,0.6,3.8,1.8,5.6H772.1z"/>
	<path d="M774.1,464v-6.2h0.9v0.9c0.5-0.7,1.1-1,2-1c0.4,0,0.7,0.1,1,0.2s0.5,0.3,0.7,0.5s0.3,0.5,0.3,0.8c0,0.2,0.1,0.5,0.1,1v3.8
		h-1.1v-3.8c0-0.4,0-0.8-0.1-1s-0.2-0.4-0.4-0.5s-0.5-0.2-0.7-0.2c-0.4,0-0.8,0.1-1.2,0.4s-0.5,0.8-0.5,1.6v3.4H774.1z"/>
	<path d="M781.5,466.5h-0.8c1.2-1.9,1.8-3.8,1.8-5.6c0-0.7-0.1-1.5-0.3-2.2c-0.1-0.6-0.3-1.1-0.6-1.7c-0.2-0.4-0.5-0.9-0.9-1.8h0.8
		c0.7,1,1.3,2,1.6,3c0.3,0.9,0.5,1.7,0.5,2.7c0,1.1-0.2,2.1-0.6,3.1S782.1,465.8,781.5,466.5z"/>
</g>
<path class="st6" d="M50,522c233.3-66.7,483.3-166.7,750-300"/>
<g class="st7">
	<path d="M635.6,262.8c0-1.4,0.4-2.5,1.1-3.3s1.8-1.2,3-1.2c0.8,0,1.5,0.2,2.1,0.6s1.1,0.9,1.5,1.6s0.5,1.4,0.5,2.3
		c0,0.9-0.2,1.7-0.5,2.3s-0.8,1.2-1.5,1.6s-1.3,0.5-2.1,0.5c-0.8,0-1.5-0.2-2.2-0.6s-1.1-0.9-1.4-1.6S635.6,263.6,635.6,262.8z
		 M636.8,262.8c0,1,0.3,1.9,0.8,2.4s1.3,0.9,2.1,0.9c0.9,0,1.6-0.3,2.1-0.9s0.8-1.5,0.8-2.6c0-0.7-0.1-1.3-0.4-1.8s-0.6-0.9-1-1.2
		s-1-0.4-1.5-0.4c-0.8,0-1.5,0.3-2.1,0.8S636.8,261.5,636.8,262.8z"/>
	<path d="M647.1,269.5c-0.6-0.7-1.1-1.6-1.5-2.6s-0.6-2-0.6-3.1c0-0.9,0.2-1.8,0.5-2.7c0.4-1,0.9-2,1.6-3h0.8
		c-0.5,0.8-0.8,1.4-0.9,1.7c-0.2,0.5-0.4,1.1-0.6,1.7c-0.2,0.7-0.3,1.5-0.3,2.2c0,1.9,0.6,3.8,1.8,5.6H647.1z"/>
	<path d="M649.1,267v-6.2h0.9v0.9c0.5-0.7,1.1-1,2-1c0.4,0,0.7,0.1,1,0.2s0.5,0.3,0.7,0.5s0.3,0.5,0.3,0.8c0,0.2,0.1,0.5,0.1,1v3.8
		h-1.1v-3.8c0-0.4,0-0.8-0.1-1s-0.2-0.4-0.4-0.5s-0.5-0.2-0.7-0.2c-0.4,0-0.8,0.1-1.2,0.4s-0.5,0.8-0.5,1.6v3.4H649.1z"/>
	<path d="M659.1,267v-8.6h1.1v8.6H659.1z"/>
	<path d="M661.4,263.9c0-1.2,0.3-2,1-2.6c0.5-0.5,1.2-0.7,2-0.7c0.9,0,1.6,0.3,2.1,0.8s0.8,1.3,0.8,2.3c0,0.8-0.1,1.4-0.4,1.9
		s-0.6,0.8-1,1.1s-1,0.4-1.5,0.4c-0.9,0-1.6-0.3-2.1-0.8S661.4,264.9,661.4,263.9z M662.5,263.9c0,0.8,0.2,1.4,0.5,1.8
		s0.8,0.6,1.3,0.6c0.5,0,1-0.2,1.3-0.6s0.5-1,0.5-1.8c0-0.8-0.2-1.4-0.5-1.7s-0.8-0.6-1.3-0.6c-0.5,0-1,0.2-1.3,0.6
		S662.5,263.1,662.5,263.9z"/>
	<path d="M668.3,267.5l1,0.2c0,0.3,0.2,0.5,0.4,0.7c0.3,0.2,0.6,0.3,1.1,0.3c0.5,0,0.9-0.1,1.1-0.3s0.4-0.5,0.5-0.8
		c0.1-0.2,0.1-0.7,0.1-1.4c-0.5,0.5-1,0.8-1.7,0.8c-0.9,0-1.5-0.3-2-0.9s-0.7-1.4-0.7-2.2c0-0.6,0.1-1.1,0.3-1.6s0.5-0.9,0.9-1.2
		s0.9-0.4,1.4-0.4c0.7,0,1.3,0.3,1.8,0.9v-0.8h1v5.4c0,1-0.1,1.7-0.3,2.1s-0.5,0.7-0.9,1s-1,0.4-1.6,0.4c-0.7,0-1.3-0.2-1.8-0.5
		S668.3,268.2,668.3,267.5z M669.1,263.8c0,0.8,0.2,1.4,0.5,1.8s0.7,0.6,1.2,0.6c0.5,0,0.9-0.2,1.2-0.6s0.5-1,0.5-1.8
		c0-0.8-0.2-1.3-0.5-1.7s-0.7-0.6-1.2-0.6c-0.5,0-0.9,0.2-1.2,0.6S669.1,263,669.1,263.8z"/>
	<path d="M678.5,267v-6.2h0.9v0.9c0.5-0.7,1.1-1,2-1c0.4,0,0.7,0.1,1,0.2s0.5,0.3,0.7,0.5s0.3,0.5,0.3,0.8c0,0.2,0.1,0.5,0.1,1v3.8
		h-1.1v-3.8c0-0.4,0-0.8-0.1-1s-0.2-0.4-0.4-0.5s-0.5-0.2-0.7-0.2c-0.4,0-0.8,0.1-1.2,0.4s-0.5,0.8-0.5,1.6v3.4H678.5z"/>
	<path d="M685.8,269.5h-0.8c1.2-1.9,1.8-3.8,1.8-5.6c0-0.7-0.1-1.5-0.3-2.2c-0.1-0.6-0.3-1.1-0.6-1.7c-0.2-0.4-0.5-0.9-0.9-1.8h0.8
		c0.7,1,1.3,2,1.6,3c0.3,0.9,0.5,1.7,0.5,2.7c0,1.1-0.2,2.1-0.6,3.1S686.4,268.8,685.8,269.5z"/>
</g>
<path class="st6" d="M50,522c86.7-46.7,153.3-196.7,200-450"/>
<g class="st7">
	<path d="M255.6,97.8c0-1.4,0.4-2.5,1.1-3.3s1.8-1.2,3-1.2c0.8,0,1.5,0.2,2.1,0.6s1.1,0.9,1.5,1.6s0.5,1.4,0.5,2.3
		c0,0.9-0.2,1.7-0.5,2.3s-0.8,1.2-1.5,1.6s-1.3,0.5-2.1,0.5c-0.8,0-1.5-0.2-2.2-0.6s-1.1-0.9-1.4-1.6S255.6,98.6,255.6,97.8z
		 M256.8,97.8c0,1,0.3,1.9,0.8,2.4s1.3,0.9,2.1,0.9c0.9,0,1.6-0.3,2.1-0.9s0.8-1.5,0.8-2.6c0-0.7-0.1-1.3-0.4-1.8s-0.6-0.9-1-1.2
		s-1-0.4-1.5-0.4c-0.8,0-1.5,0.3-2.1,0.8S256.8,96.5,256.8,97.8z"/>
	<path d="M267.1,104.5c-0.6-0.7-1.1-1.6-1.5-2.6s-0.6-2-0.6-3.1c0-0.9,0.2-1.8,0.5-2.7c0.4-1,0.9-2,1.6-3h0.8
		c-0.5,0.8-0.8,1.4-0.9,1.7c-0.2,0.5-0.4,1.1-0.6,1.7c-0.2,0.7-0.3,1.5-0.3,2.2c0,1.9,0.6,3.8,1.8,5.6H267.1z"/>
	<path d="M269.1,102v-6.2h0.9v0.9c0.5-0.7,1.1-1,2-1c0.4,0,0.7,0.1,1,0.2s0.5,0.3,0.7,0.5s0.3,0.5,0.3,0.8c0,0.2,0.1,0.5,0.1,1v3.8
		h-1.1v-3.8c0-0.4,0-0.8-0.1-1s-0.2-0.4-0.4-0.5s-0.5-0.2-0.7-0.2c-0.4,0-0.8,0.1-1.2,0.4s-0.5,0.8-0.5,1.6v3.4H269.1z"/>
	<path d="M276.4,98h-1.1l2.1-4.7h0.8l2.1,4.7h-1.1l-1.4-3.5L276.4,98z"/>
	<path d="M286.7,101v1H281c0-0.3,0-0.5,0.1-0.7c0.1-0.4,0.4-0.8,0.7-1.1s0.8-0.8,1.4-1.3c0.9-0.8,1.6-1.4,1.9-1.8s0.5-0.9,0.5-1.3
		c0-0.4-0.1-0.8-0.4-1.1s-0.7-0.4-1.2-0.4c-0.5,0-0.9,0.2-1.2,0.5s-0.5,0.7-0.5,1.3l-1.1-0.1c0.1-0.8,0.4-1.4,0.8-1.8s1.1-0.6,2-0.6
		c0.8,0,1.5,0.2,2,0.7s0.7,1,0.7,1.7c0,0.3-0.1,0.7-0.2,1s-0.4,0.7-0.7,1s-0.9,0.9-1.6,1.5c-0.6,0.5-1,0.9-1.2,1.1s-0.3,0.4-0.4,0.6
		H286.7z"/>
	<path d="M288.8,104.5H288c1.2-1.9,1.8-3.8,1.8-5.6c0-0.7-0.1-1.5-0.3-2.2c-0.1-0.6-0.3-1.1-0.6-1.7c-0.2-0.4-0.5-0.9-0.9-1.8h0.8
		c0.7,1,1.3,2,1.6,3c0.3,0.9,0.5,1.7,0.5,2.7c0,1.1-0.2,2.1-0.6,3.1S289.4,103.8,288.8,104.5z"/>
</g>
<path class="st6" d="M50,522c50-20,70-100,70-450"/>
<g class="st7">
	<path d="M125.6,87.8c0-1.4,0.4-2.5,1.1-3.3s1.8-1.2,3-1.2c0.8,0,1.5,0.2,2.1,0.6s1.1,0.9,1.5,1.6s0.5,1.4,0.5,2.3
		c0,0.9-0.2,1.7-0.5,2.3s-0.8,1.2-1.5,1.6s-1.3,0.5-2.1,0.5c-0.8,0-1.5-0.2-2.2-0.6s-1.1-0.9-1.4-1.6S125.6,88.6,125.6,87.8z
		 M126.8,87.8c0,1,0.3,1.9,0.8,2.4s1.3,0.9,2.1,0.9c0.9,0,1.6-0.3,2.1-0.9s0.8-1.5,0.8-2.6c0-0.7-0.1-1.3-0.4-1.8s-0.6-0.9-1-1.2
		s-1-0.4-1.5-0.4c-0.8,0-1.5,0.3-2.1,0.8S126.8,86.5,126.8,87.8z"/>
	<path d="M137.1,94.5c-0.6-0.7-1.1-1.6-1.5-2.6s-0.6-2-0.6-3.1c0-0.9,0.2-1.8,0.5-2.7c0.4-1,0.9-2,1.6-3h0.8
		c-0.5,0.8-0.8,1.4-0.9,1.7c-0.2,0.5-0.4,1.1-0.6,1.7c-0.2,0.7-0.3,1.5-0.3,2.2c0,1.9,0.6,3.8,1.8,5.6H137.1z"/>
	<path d="M144.4,91v1h-5.7c0-0.3,0-0.5,0.1-0.7c0.1-0.4,0.4-0.8,0.7-1.1s0.8-0.8,1.4-1.3c0.9-0.8,1.6-1.4,1.9-1.8s0.5-0.9,0.5-1.3
		c0-0.4-0.1-0.8-0.4-1.1s-0.7-0.4-1.2-0.4c-0.5,0-0.9,0.2-1.2,0.5S140,85.4,140,86l-1.1-0.1c0.1-0.8,0.4-1.4,0.8-1.8s1.1-0.6,2-0.6
		c0.8,0,1.5,0.2,2,0.7s0.7,1,0.7,1.7c0,0.3-0.1,0.7-0.2,1s-0.4,0.7-0.7,1s-0.9,0.9-1.6,1.5c-0.6,0.5-1,0.9-1.2,1.1s-0.3,0.4-0.4,0.6
		H144.4z"/>
	<path d="M146.4,88h-1.1l2.1-4.7h0.8l2.1,4.7h-1.1l-1.4-3.5L146.4,88z"/>
	<path d="M151.4,92v-6.2h0.9v0.9c0.5-0.7,1.1-1,2-1c0.4,0,0.7,0.1,1,0.2s0.5,0.3,0.7,0.5s0.3,0.5,0.3,0.8c0,0.2,0.1,0.5,0.1,1V92
		h-1.1v-3.8c0-0.4,0-0.8-0.1-1s-0.2-0.4-0.4-0.5s-0.5-0.2-0.7-0.2c-0.4,0-0.8,0.1-1.2,0.4s-0.5,0.8-0.5,1.6V92H151.4z"/>
	<path d="M158.8,94.5H158c1.2-1.9,1.8-3.8,1.8-5.6c0-0.7-0.1-1.5-0.3-2.2c-0.1-0.6-0.3-1.1-0.6-1.7c-0.2-0.4-0.5-0.9-0.9-1.8h0.8
		c0.7,1,1.3,2,1.6,3c0.3,0.9,0.5,1.7,0.5,2.7c0,1.1-0.2,2.1-0.6,3.1S159.4,93.8,158.8,94.5z"/>
</g>
<path class="st6" d="M50,522c30,0,30-100,30-450"/>
<g class="st7">
	<path d="M84.6,87.8c0-1.4,0.4-2.5,1.1-3.3s1.8-1.2,3-1.2c0.8,0,1.5,0.2,2.1,0.6s1.1,0.9,1.5,1.6s0.5,1.4,0.5,2.3
		c0,0.9-0.2,1.7-0.5,2.3s-0.8,1.2-1.5,1.6s-1.3,0.5-2.1,0.5c-0.8,0-1.5-0.2-2.2-0.6s-1.1-0.9-1.4-1.6S84.6,88.6,84.6,87.8z
		 M85.8,87.8c0,1,0.3,1.9,0.8,2.4s1.3,0.9,2.1,0.9c0.9,0,1.6-0.3,2.1-0.9s0.8-1.5,0.8-2.6c0-0.7-0.1-1.3-0.4-1.8s-0.6-0.9-1-1.2
		s-1-0.4-1.5-0.4c-0.8,0-1.5,0.3-2.1,0.8S85.8,86.5,85.8,87.8z"/>
	<path d="M96.1,94.5c-0.6-0.7-1.1-1.6-1.5-2.6s-0.6-2-0.6-3.1c0-0.9,0.2-1.8,0.5-2.7c0.4-1,0.9-2,1.6-3h0.8
		c-0.5,0.8-0.8,1.4-0.9,1.7c-0.2,0.5-0.4,1.1-0.6,1.7c-0.2,0.7-0.3,1.5-0.3,2.2c0,1.9,0.6,3.8,1.8,5.6H96.1z"/>
	<path d="M98.1,92v-6.2h0.9v0.9c0.5-0.7,1.1-1,2-1c0.4,0,0.7,0.1,1,0.2s0.5,0.3,0.7,0.5s0.3,0.5,0.3,0.8c0,0.2,0.1,0.5,0.1,1V92
		h-1.1v-3.8c0-0.4,0-0.8-0.1-1s-0.2-0.4-0.4-0.5s-0.5-0.2-0.7-0.2c-0.4,0-0.8,0.1-1.2,0.4s-0.5,0.8-0.5,1.6V92H98.1z"/>
	<path d="M105.4,89.9l-0.3-4.6v-1.9h1.3v1.9l-0.3,4.6H105.4z M105.1,92v-1.2h1.2V92H105.1z"/>
	<path d="M108.8,94.5h-0.8c1.2-1.9,1.8-3.8,1.8-5.6c0-0.7-0.1-1.5-0.3-2.2c-0.1-0.6-0.3-1.1-0.6-1.7c-0.2-0.4-0.5-0.9-0.9-1.8h0.8
		c0.7,1,1.3,2,1.6,3c0.3,0.9,0.5,1.7,0.5,2.7c0,1.1-0.2,2.1-0.6,3.1S109.4,93.8,108.8,94.5z"/>
</g>
<g class="st7">
	<path d="M24,349.1c-2.6,0-4.6-0.7-6.2-2.2s-2.4-3.3-2.4-5.4c0-1.8,0.6-3.2,1.7-4.4s2.7-1.7,4.7-1.7c1.4,0,2.7,0.3,3.9,0.8
		c0.9,0.4,1.7,1,2.3,1.6s1.1,1.3,1.5,2.1c0.5,1,0.7,2,0.7,3.1c0,1.1-0.3,2.2-0.8,3.1s-1.3,1.7-2.3,2.1S25.1,349.1,24,349.1z
		 M24.1,347.2c0.8,0,1.6-0.2,2.3-0.5s1.3-0.9,1.7-1.6s0.6-1.4,0.6-2.2c0-0.7-0.2-1.4-0.5-2.1s-0.8-1.3-1.5-1.8s-1.4-0.9-2.3-1.2
		s-1.8-0.5-2.7-0.5c-1.4,0-2.6,0.4-3.4,1.2s-1.3,1.8-1.3,3c0,1.5,0.6,2.8,1.9,4S21.9,347.2,24.1,347.2z"/>
	<path d="M34,335.6l-14.3-3v-1.6l1.4,0.3c-0.6-0.6-1.1-1.1-1.3-1.6s-0.4-1-0.4-1.5c0-1,0.4-1.8,1.1-2.5s1.8-1,3.1-1
		c1.1,0,2.1,0.2,3,0.5s1.6,0.8,2.1,1.3s0.9,1,1.2,1.6s0.4,1.1,0.4,1.6c0,1.2-0.6,2.2-1.9,2.9l5.6,1.2V335.6z M25.8,332.1
		c0.8,0,1.3-0.1,1.6-0.2c0.4-0.2,0.8-0.4,1-0.8s0.4-0.8,0.4-1.3c0-1-0.6-1.8-1.7-2.5s-2.3-0.9-3.5-0.9c-0.9,0-1.6,0.2-2,0.6
		s-0.7,0.9-0.7,1.6c0,0.4,0.1,0.9,0.4,1.2s0.6,0.7,1.1,1.1s1,0.6,1.7,0.8S25.3,332.1,25.8,332.1z"/>
	<path d="M26.5,316l0.2-1.7c0.9,0.2,1.7,0.8,2.4,1.7s1.2,1.9,1.2,3.2c0,0.8-0.2,1.5-0.5,2.1s-0.9,1.1-1.5,1.5
		c-0.7,0.3-1.4,0.5-2.3,0.5c-1.1,0-2.2-0.3-3.3-0.8s-1.9-1.2-2.4-2s-0.8-1.7-0.8-2.7c0-1.2,0.4-2.2,1.2-3s1.8-1.1,3.1-1.1
		c0.5,0,1,0,1.6,0.1v7.6c0.2,0,0.4,0,0.5,0c1,0,1.7-0.2,2.2-0.7s0.8-1,0.8-1.6c0-0.6-0.2-1.2-0.6-1.8S27.2,316.3,26.5,316z
		 M23.9,321.1v-5.8c-0.2,0-0.3,0-0.4,0c-0.9,0-1.6,0.2-2,0.7s-0.7,1-0.7,1.7c0,0.8,0.3,1.4,0.8,2.1S22.9,320.8,23.9,321.1z"/>
	<path d="M30,312.4l-10.4-2.2v-1.6l2.1,0.4c-0.8-0.5-1.4-1.1-1.8-1.6s-0.6-1-0.6-1.6c0-0.4,0.1-0.8,0.4-1.3l1.6,0.7
		c-0.2,0.3-0.3,0.6-0.3,1c0,0.6,0.3,1.3,1,1.9s1.9,1.2,3.7,1.5l4.2,0.9V312.4z"/>
	<path d="M28.7,298.8c0.5,0.6,0.9,1.2,1.2,1.8s0.4,1.2,0.4,1.8c0,1-0.3,1.7-0.8,2.3s-1.3,0.9-2.2,0.9c-0.6,0-1.1-0.1-1.5-0.4
		s-0.8-0.6-1.1-1s-0.5-1-0.6-1.6c-0.1-0.4-0.1-1.2-0.2-2.3s-0.2-1.9-0.4-2.4c-0.5-0.1-0.9-0.2-1.2-0.2c-0.4,0-0.7,0.1-1,0.4
		c-0.3,0.4-0.5,1-0.5,1.8c0,0.7,0.2,1.3,0.5,1.8s0.8,0.8,1.4,1l-0.2,1.8c-1-0.4-1.8-0.9-2.4-1.7s-0.8-1.8-0.8-3c0-1.3,0.3-2.3,0.9-3
		c0.5-0.6,1-0.9,1.8-0.9c0.6,0,1.2,0.1,1.9,0.2l2.6,0.6c0.8,0.2,1.5,0.3,2,0.3c0.3,0,0.8-0.1,1.4-0.2v1.8
		C29.7,298.7,29.2,298.8,28.7,298.8z M24.7,298.1c0.1,0.2,0.2,0.5,0.2,0.8s0.1,0.8,0.2,1.4c0.1,1,0.2,1.8,0.3,2.2s0.4,0.7,0.7,1
		s0.6,0.3,1,0.3c0.5,0,0.9-0.2,1.2-0.5s0.5-0.8,0.5-1.5c0-0.6-0.2-1.1-0.5-1.7s-0.7-1-1.3-1.3S25.8,298.3,24.7,298.1z"/>
	<path d="M28.6,290.5l1.4,0.3c0.1,0.4,0.2,0.8,0.2,1.2c0,0.7-0.2,1.3-0.5,1.7c-0.3,0.3-0.6,0.5-1.1,0.5c-0.2,0-0.8-0.1-1.6-0.3
		l-6-1.3v1.4l-1.4-0.3v-1.4l-2.5-0.5l-1.2-2l3.8,0.8v-1.7l1.4,0.3v1.7l5.7,1.2c0.7,0.1,1.2,0.2,1.3,0.2c0.2,0,0.4-0.1,0.5-0.2
		s0.2-0.3,0.2-0.6C28.7,291.2,28.6,290.8,28.6,290.5z"/>
	<path d="M17.7,286.6l-2-0.4v-1.8l2,0.4V286.6z M30,289.2L19.6,287v-1.8l10.4,2.2V289.2z"/>
	<path d="M26.1,284.4c-2,0-3.7-0.6-5-1.8c-1.1-1-1.6-2.3-1.6-3.9c0-1.2,0.4-2.3,1.2-3s1.8-1.1,3.2-1.1c1.2,0,2.3,0.2,3.3,0.7
		s1.8,1.2,2.4,2.1s0.8,1.8,0.8,2.8c0,0.8-0.2,1.5-0.5,2.2s-0.8,1.2-1.5,1.5S26.9,284.4,26.1,284.4z M25.9,282.6c1,0,1.7-0.2,2.2-0.7
		s0.8-1.1,0.8-1.8c0-0.4-0.1-0.8-0.2-1.1s-0.4-0.7-0.7-1s-0.7-0.6-1.1-0.8s-0.8-0.4-1.3-0.5c-0.6-0.2-1.3-0.3-1.9-0.3
		c-0.9,0-1.7,0.2-2.2,0.7s-0.8,1.1-0.8,1.8c0,0.6,0.1,1.1,0.4,1.5s0.6,0.9,1.2,1.2s1.1,0.6,1.8,0.8S25.4,282.6,25.9,282.6z"/>
	<path d="M30,273.5l-10.4-2.2v-1.6l1.8,0.4c-0.7-0.7-1.2-1.3-1.6-2s-0.5-1.2-0.5-1.9c0-0.8,0.2-1.5,0.7-2s1.1-0.7,1.8-0.7
		c0.4,0,1,0.1,1.8,0.3l6.3,1.3v1.8l-6.6-1.4c-0.6-0.1-1.1-0.2-1.4-0.2c-0.3,0-0.6,0.1-0.8,0.4s-0.3,0.6-0.3,1c0,0.9,0.3,1.7,1,2.4
		s1.8,1.2,3.3,1.6l4.8,1V273.5z"/>
	<path d="M26.5,262.3l-0.1-1.8c0.5,0,0.9-0.1,1.3-0.2s0.7-0.4,0.9-0.9s0.3-0.9,0.3-1.5c0-0.8-0.2-1.4-0.5-1.8s-0.7-0.6-1.1-0.6
		c-0.3,0-0.6,0.1-0.9,0.4c-0.3,0.2-0.6,0.8-1,1.8s-0.7,1.5-0.8,1.8c-0.3,0.4-0.6,0.8-0.9,1s-0.8,0.3-1.2,0.3c-0.8,0-1.5-0.3-2.1-1
		s-0.9-1.6-0.9-2.7c0-1.3,0.3-2.3,0.9-3s1.4-1,2.4-1.1l0.1,1.7c-0.6,0-1.1,0.2-1.5,0.7s-0.5,1-0.5,1.8c0,0.6,0.1,1.1,0.4,1.4
		s0.6,0.5,0.9,0.5s0.6-0.1,0.9-0.4c0.2-0.2,0.4-0.7,0.8-1.5c0.6-1.4,1-2.2,1.4-2.6c0.5-0.6,1.2-0.8,2-0.8c0.5,0,1,0.2,1.5,0.5
		s0.9,0.8,1.2,1.4s0.4,1.4,0.4,2.3c0,1.2-0.3,2.2-0.9,3.1S27.8,262.3,26.5,262.3z"/>
</g>
<g class="st7">
	<path d="M379.2,549l3-14.3h10.3l-0.3,1.6h-8.4l-0.9,4.5h8.2l-0.3,1.6h-8.2l-1,5h9l-0.3,1.6H379.2z"/>
	<path d="M392.2,549l3-14.3h1.8l-3,14.3H392.2z"/>
	<path d="M404.4,545.5l1.7,0.2c-0.2,0.9-0.8,1.7-1.7,2.4s-1.9,1.2-3.2,1.2c-0.8,0-1.5-0.2-2.1-0.5s-1.1-0.9-1.5-1.5
		s-0.5-1.4-0.5-2.3c0-1.1,0.3-2.2,0.8-3.3s1.2-1.9,2-2.4s1.7-0.8,2.7-0.8c1.2,0,2.2,0.4,3,1.2c0.7,0.8,1.1,1.8,1.1,3.1
		c0,0.5,0,1-0.1,1.6h-7.6c0,0.2,0,0.4,0,0.5c0,1,0.2,1.7,0.7,2.2s1,0.8,1.6,0.8c0.6,0,1.2-0.2,1.8-0.6S404,546.2,404.4,545.5z
		 M399.2,542.9h5.8c0-0.2,0-0.3,0-0.4c0-0.9-0.2-1.6-0.7-2c-0.4-0.5-1-0.7-1.7-0.7c-0.8,0-1.4,0.3-2.1,0.8S399.5,541.9,399.2,542.9z
		"/>
	<path d="M407.9,549l2.2-10.4h1.8l-0.4,1.7c0.7-0.7,1.2-1.2,1.8-1.5s1.1-0.4,1.7-0.4c0.6,0,1.2,0.2,1.6,0.5c0.4,0.3,0.7,0.8,0.9,1.4
		c0.5-0.7,1.1-1.1,1.7-1.5c0.6-0.3,1.2-0.5,1.8-0.5c0.9,0,1.5,0.2,1.9,0.6c0.4,0.4,0.6,1,0.6,1.7c0,0.3-0.1,0.8-0.2,1.6l-1.4,6.7
		h-1.8l1.4-6.9c0.1-0.6,0.2-1,0.2-1.2c0-0.3-0.1-0.6-0.3-0.8s-0.5-0.3-0.9-0.3c-0.5,0-1.1,0.2-1.6,0.5s-1,0.7-1.3,1.3
		s-0.6,1.3-0.8,2.4l-1.1,5h-1.8l1.5-7c0.1-0.5,0.2-0.8,0.2-1c0-0.3-0.1-0.6-0.3-0.8c-0.2-0.2-0.5-0.3-0.8-0.3c-0.5,0-1,0.2-1.6,0.5
		c-0.6,0.3-1,0.8-1.3,1.3c-0.3,0.6-0.6,1.4-0.8,2.4l-1,4.9H407.9z"/>
	<path d="M432.2,545.5l1.7,0.2c-0.2,0.9-0.8,1.7-1.7,2.4s-1.9,1.2-3.2,1.2c-0.8,0-1.5-0.2-2.1-0.5c-0.6-0.4-1.1-0.9-1.5-1.5
		c-0.3-0.7-0.5-1.4-0.5-2.3c0-1.1,0.3-2.2,0.8-3.3c0.5-1.1,1.2-1.9,2-2.4c0.8-0.5,1.7-0.8,2.7-0.8c1.2,0,2.2,0.4,3,1.2
		c0.7,0.8,1.1,1.8,1.1,3.1c0,0.5,0,1-0.1,1.6h-7.6c0,0.2,0,0.4,0,0.5c0,1,0.2,1.7,0.7,2.2c0.4,0.5,1,0.8,1.6,0.8
		c0.6,0,1.2-0.2,1.8-0.6S431.8,546.2,432.2,545.5z M427,542.9h5.8c0-0.2,0-0.3,0-0.4c0-0.9-0.2-1.6-0.7-2c-0.4-0.5-1-0.7-1.7-0.7
		c-0.8,0-1.4,0.3-2.1,0.8C427.8,541.1,427.3,541.9,427,542.9z"/>
	<path d="M435.7,549l2.2-10.4h1.6l-0.4,1.8c0.7-0.7,1.3-1.2,2-1.6s1.2-0.5,1.9-0.5c0.8,0,1.5,0.2,2,0.7s0.7,1.1,0.7,1.8
		c0,0.4-0.1,1-0.3,1.8L444,549h-1.8l1.4-6.6c0.1-0.6,0.2-1.1,0.2-1.4c0-0.3-0.1-0.6-0.4-0.8c-0.2-0.2-0.6-0.3-1-0.3
		c-0.9,0-1.7,0.3-2.4,1c-0.7,0.7-1.2,1.8-1.6,3.3l-1,4.8H435.7z"/>
	<path d="M450.9,547.6l-0.3,1.4c-0.4,0.1-0.8,0.2-1.2,0.2c-0.7,0-1.3-0.2-1.7-0.5c-0.3-0.3-0.5-0.6-0.5-1.1c0-0.2,0.1-0.8,0.3-1.6
		l1.3-6h-1.4l0.3-1.4h1.4l0.5-2.5l2-1.2l-0.8,3.8h1.7l-0.3,1.4h-1.7l-1.2,5.7c-0.1,0.7-0.2,1.2-0.2,1.3c0,0.2,0.1,0.4,0.2,0.5
		c0.1,0.1,0.3,0.2,0.6,0.2C450.3,547.7,450.6,547.6,450.9,547.6z"/>
	<path d="M452.5,545.5l1.8-0.1c0,0.5,0.1,0.9,0.2,1.3s0.4,0.7,0.9,0.9s0.9,0.3,1.5,0.3c0.8,0,1.4-0.2,1.8-0.5s0.6-0.7,0.6-1.1
		c0-0.3-0.1-0.6-0.4-0.9c-0.2-0.3-0.8-0.6-1.8-1c-0.9-0.4-1.5-0.7-1.8-0.8c-0.4-0.3-0.8-0.6-1-0.9c-0.2-0.4-0.3-0.8-0.3-1.2
		c0-0.8,0.3-1.5,1-2.1c0.7-0.6,1.6-0.9,2.7-0.9c1.3,0,2.3,0.3,3,0.9c0.7,0.6,1,1.4,1.1,2.4l-1.7,0.1c0-0.6-0.2-1.1-0.7-1.5
		c-0.4-0.4-1-0.5-1.8-0.5c-0.6,0-1.1,0.1-1.4,0.4c-0.3,0.3-0.5,0.6-0.5,0.9s0.1,0.6,0.4,0.9c0.2,0.2,0.7,0.4,1.5,0.8
		c1.4,0.6,2.2,1,2.6,1.4c0.6,0.5,0.8,1.2,0.8,2c0,0.5-0.2,1-0.5,1.5c-0.3,0.5-0.8,0.9-1.4,1.2c-0.6,0.3-1.4,0.4-2.3,0.4
		c-1.2,0-2.2-0.3-3.1-0.9S452.5,546.8,452.5,545.5z"/>
</g>
<g>
	<g>
		<g>
			<path class="st8" d="M292,51.5c-0.8,0-1.5-0.7-1.5-1.5V33c0-0.8,0.7-1.5,1.5-1.5h61c0.8,0,1.5,0.7,1.5,1.5v17
				c0,0.8-0.7,1.5-1.5,1.5H292z"/>
			<g>
				<path class="st9" d="M353,32c0.6,0,1,0.4,1,1v17c0,0.6-0.4,1-1,1h-61c-0.6,0-1-0.4-1-1V33c0-0.6,0.4-1,1-1H353 M353,31h-61
					c-1.1,0-2,0.9-2,2v17c0,1.1,0.9,2,2,2h61c1.1,0,2-0.9,2-2V33C355,31.9,354.1,31,353,31L353,31z"/>
			</g>
		</g>
		<g>
			<path d="M294.4,46.2v-9.1h1.2v3.9h3.4v-3.9h1.2v9.1H299V42h-3.4v4.3H294.4z"/>
			<path d="M304.5,46.4c-0.9,0-1.7-0.3-2.2-1s-0.8-1.5-0.8-2.5s0.3-1.8,0.8-2.5s1.3-1,2.2-1c0.9,0,1.7,0.3,2.2,1
				c0.6,0.7,0.8,1.5,0.8,2.5s-0.3,1.8-0.8,2.5C306.2,46.1,305.4,46.4,304.5,46.4z M304.5,45.5c0.6,0,1-0.2,1.4-0.7
				c0.3-0.5,0.5-1.1,0.5-1.9c0-0.8-0.2-1.4-0.5-1.9c-0.3-0.5-0.8-0.7-1.4-0.7c-0.6,0-1,0.2-1.4,0.7s-0.5,1.1-0.5,1.9
				c0,0.8,0.2,1.4,0.5,1.9S303.9,45.5,304.5,45.5z"/>
			<path d="M309.6,46.2v-6.5h1.1v1.4c0.3-0.5,0.7-0.9,1.2-1.2s0.9-0.4,1.5-0.4c0.4,0,0.8,0.1,1.2,0.2v2.4h-1v-1.5
				c-0.2,0-0.3,0-0.4,0c-0.4,0-0.8,0.2-1.2,0.5s-0.8,0.8-1.1,1.4v3.8H309.6z"/>
			<path d="M316.8,46.2v-6.5h1.1v1.4c0.3-0.5,0.7-0.9,1.2-1.2s0.9-0.4,1.5-0.4c0.4,0,0.8,0.1,1.2,0.2v2.4h-1v-1.5
				c-0.2,0-0.3,0-0.4,0c-0.4,0-0.8,0.2-1.2,0.5s-0.8,0.8-1.1,1.4v3.8H316.8z"/>
			<path d="M325.2,46.2v-5.6h-1.8v-0.9h2.9v5.6h1.8v0.9H325.2z M325.1,37.3c0-0.2,0.1-0.4,0.3-0.5c0.2-0.1,0.3-0.2,0.5-0.2
				c0.2,0,0.3,0.1,0.5,0.2c0.2,0.1,0.3,0.3,0.3,0.5c0,0.2-0.1,0.4-0.3,0.5s-0.3,0.2-0.5,0.2c-0.1,0-0.3-0.1-0.5-0.2
				C325.1,37.8,325.1,37.6,325.1,37.3z"/>
			<path d="M331.6,41.2c0.3-0.5,0.7-1,1.2-1.2c0.5-0.3,0.9-0.4,1.3-0.4c0.5,0,1,0.2,1.5,0.7s0.7,1.2,0.7,2.2c0,0.8-0.1,1.4-0.4,2
				s-0.7,1.1-1.2,1.4s-1.1,0.5-1.8,0.5c-0.2,0-0.5,0-0.9-0.1c-0.1,0-0.2,0-0.3,0h-1.1v-9.5h1.1V41.2z M331.6,42.5v2.8
				c0.4,0.1,0.8,0.2,1.1,0.2c0.7,0,1.2-0.3,1.7-0.8s0.7-1.2,0.7-2.1c0-0.7-0.1-1.1-0.4-1.5c-0.2-0.3-0.5-0.5-0.8-0.5
				c-0.3,0-0.7,0.2-1.1,0.5S331.9,41.9,331.6,42.5z"/>
			<path d="M339.6,46.2v-8.5h-2v-0.9h3v8.5h2v0.9H339.6z"/>
			<path d="M350.5,45.8c-0.9,0.4-1.7,0.6-2.5,0.6c-0.6,0-1.1-0.1-1.6-0.4c-0.5-0.3-0.8-0.7-1.1-1.3s-0.4-1.1-0.4-1.7
				c0-0.6,0.1-1.2,0.4-1.7s0.6-1,1.1-1.3c0.5-0.3,1-0.5,1.6-0.5c0.8,0,1.4,0.3,1.9,0.8c0.5,0.6,0.7,1.4,0.7,2.6v0.2H346
				c0,0.5,0.1,0.9,0.3,1.2s0.4,0.7,0.7,0.8s0.7,0.3,1.1,0.3c0.7,0,1.5-0.2,2.3-0.7V45.8z M346.1,42.3h3.3v-0.2c0-0.5-0.1-1-0.4-1.3
				s-0.6-0.5-1-0.5c-0.4,0-0.8,0.2-1.1,0.5S346.2,41.7,346.1,42.3z"/>
		</g>
	</g>
	<g>
		<g>
			<path class="st2" d="M362,51.5c-0.8,0-1.5-0.7-1.5-1.5V33c0-0.8,0.7-1.5,1.5-1.5h25c0.8,0,1.5,0.7,1.5,1.5v17
				c0,0.8-0.7,1.5-1.5,1.5H362z"/>
			<path class="st9" d="M387,32c0.6,0,1,0.4,1,1v17c0,0.6-0.4,1-1,1h-25c-0.6,0-1-0.4-1-1V33c0-0.6,0.4-1,1-1H387 M387,31h-25
				c-1.1,0-2,0.9-2,2v17c0,1.1,0.9,2,2,2h25c1.1,0,2-0.9,2-2V33C389,31.9,388.1,31,387,31L387,31z"/>
		</g>
		<g>
			<path d="M364.7,46.2v-9.1h1.8c1.1,0,1.8,0.1,2.1,0.2s0.6,0.4,0.8,0.7s0.3,0.7,0.3,1.1c0,0.3-0.1,0.6-0.2,0.9s-0.3,0.5-0.5,0.8
				s-0.5,0.5-0.9,0.7c0.7,0.3,1.2,0.6,1.5,1.1s0.4,0.8,0.4,1.3c0,0.4-0.1,0.8-0.3,1.2s-0.5,0.7-0.9,0.9s-1,0.3-1.9,0.3H364.7z
				 M365.9,41.2h1.2c0.4-0.2,0.7-0.3,0.9-0.5c0.2-0.2,0.3-0.4,0.4-0.6s0.1-0.5,0.1-0.8c0-0.4-0.1-0.8-0.4-1
				c-0.3-0.2-0.7-0.3-1.5-0.3h-0.8V41.2z M365.9,45.3h1.1c0.6,0,1.1-0.1,1.4-0.4s0.4-0.6,0.4-1.1c0-0.3-0.1-0.6-0.2-0.8
				s-0.4-0.5-0.8-0.6s-0.9-0.2-1.6-0.2h-0.3V45.3z"/>
			<path d="M376.1,44.8c-0.3,0.5-0.7,1-1.2,1.2c-0.5,0.3-0.9,0.4-1.3,0.4c-0.5,0-1-0.2-1.5-0.7c-0.4-0.5-0.7-1.2-0.7-2.2
				c0-0.8,0.1-1.4,0.4-2s0.7-1.1,1.2-1.4s1.1-0.5,1.8-0.5c0.2,0,0.5,0,0.9,0.1c0.1,0,0.2,0,0.3,0h1.1v4.6c0,0.8,0.1,1.4,0.3,1.9
				h-1.1C376.2,45.9,376.2,45.4,376.1,44.8z M376.1,43.5v-2.8c-0.4-0.1-0.7-0.2-1.1-0.2c-0.7,0-1.2,0.3-1.7,0.8
				c-0.4,0.5-0.7,1.2-0.7,2.1c0,0.6,0.1,1.1,0.4,1.5s0.5,0.5,0.8,0.5c0.3,0,0.7-0.2,1.1-0.5C375.4,44.5,375.8,44.1,376.1,43.5z"/>
			<path d="M383.4,44.8c-0.3,0.5-0.7,1-1.2,1.2s-0.9,0.4-1.3,0.4c-0.5,0-1-0.2-1.5-0.7c-0.4-0.5-0.7-1.2-0.7-2.2
				c0-0.8,0.1-1.4,0.4-2s0.7-1.1,1.2-1.4s1.1-0.5,1.8-0.5c0.2,0,0.5,0,0.9,0.1c0.1,0,0.2,0,0.3,0v-2.9h1.1v9.5h-1.1V44.8z
				 M383.4,43.5v-2.8c-0.4-0.1-0.7-0.2-1.1-0.2c-0.7,0-1.2,0.3-1.7,0.8c-0.4,0.5-0.7,1.2-0.7,2.1c0,0.6,0.1,1.1,0.4,1.5
				s0.5,0.5,0.8,0.5c0.3,0,0.7-0.2,1.1-0.5C382.7,44.5,383.1,44.1,383.4,43.5z"/>
		</g>
	</g>
	<g>
		<path class="st10" d="M428.5,52h-32c-1.1,0-2-0.9-2-2V33c0-1.1,0.9-2,2-2h32c1.1,0,2,0.9,2,2v17C430.5,51.1,429.6,52,428.5,52z"/>
		<g>
			<path d="M399.4,46.2v-9.1h5v0.9h-3.8v3.1h3.5v0.9h-3.5v4.2H399.4z"/>
			<path d="M410.5,44.8c-0.3,0.5-0.7,1-1.2,1.2c-0.5,0.3-0.9,0.4-1.3,0.4c-0.5,0-1-0.2-1.5-0.7s-0.7-1.2-0.7-2.2
				c0-0.8,0.1-1.4,0.4-2c0.3-0.6,0.7-1.1,1.2-1.4c0.5-0.3,1.1-0.5,1.8-0.5c0.2,0,0.5,0,0.9,0.1c0.1,0,0.2,0,0.3,0h1.1v4.6
				c0,0.8,0.1,1.4,0.3,1.9h-1.1C410.6,45.9,410.6,45.4,410.5,44.8z M410.5,43.5v-2.8c-0.4-0.1-0.7-0.2-1.1-0.2
				c-0.7,0-1.2,0.3-1.7,0.8s-0.7,1.2-0.7,2.1c0,0.6,0.1,1.1,0.4,1.5c0.2,0.3,0.5,0.5,0.8,0.5c0.3,0,0.7-0.2,1.1-0.5
				S410.2,44.1,410.5,43.5z"/>
			<path d="M415.2,46.2v-5.6h-1.8v-0.9h2.9v5.6h1.8v0.9H415.2z M415.1,37.3c0-0.2,0.1-0.4,0.3-0.5c0.2-0.1,0.3-0.2,0.5-0.2
				c0.2,0,0.3,0.1,0.5,0.2c0.2,0.1,0.3,0.3,0.3,0.5c0,0.2-0.1,0.4-0.3,0.5s-0.3,0.2-0.5,0.2c-0.1,0-0.3-0.1-0.5-0.2
				S415.1,37.6,415.1,37.3z"/>
			<path d="M421.2,46.2v-6.5h1.1v1.4c0.3-0.5,0.7-0.9,1.2-1.2s0.9-0.4,1.5-0.4c0.4,0,0.8,0.1,1.2,0.2v2.4h-1v-1.5
				c-0.2,0-0.3,0-0.4,0c-0.4,0-0.8,0.2-1.2,0.5s-0.8,0.8-1.1,1.4v3.8H421.2z"/>
		</g>
	</g>
	<g>
		<path class="st11" d="M470.5,52h-32c-1.1,0-2-0.9-2-2V33c0-1.1,0.9-2,2-2h32c1.1,0,2,0.9,2,2v17C472.5,51.1,471.6,52,470.5,52z"/>
		<g>
			<path d="M446.5,46.2c-0.6,0.2-1.2,0.3-1.8,0.3c-0.8,0-1.4-0.2-2-0.6s-1.1-0.9-1.4-1.7s-0.5-1.6-0.5-2.6c0-0.9,0.2-1.8,0.5-2.5
				s0.8-1.3,1.4-1.7s1.3-0.6,2-0.6c0.5,0,1.1,0.1,1.8,0.4v1.1c-0.6-0.4-1.3-0.5-1.9-0.5c-0.5,0-0.9,0.2-1.3,0.5
				c-0.4,0.3-0.7,0.8-0.9,1.4s-0.4,1.3-0.4,2c0,1,0.2,1.9,0.7,2.7s1.2,1.2,2.1,1.2c0.1,0,0.3,0,0.5,0v-2.9h-0.9v-0.9h2.1V46.2z"/>
			<path d="M450.9,46.4c-0.9,0-1.7-0.3-2.2-1c-0.6-0.7-0.8-1.5-0.8-2.5s0.3-1.8,0.8-2.5c0.6-0.7,1.3-1,2.2-1c0.9,0,1.7,0.3,2.2,1
				c0.6,0.7,0.8,1.5,0.8,2.5s-0.3,1.8-0.8,2.5C452.6,46.1,451.8,46.4,450.9,46.4z M450.9,45.5c0.6,0,1-0.2,1.4-0.7
				c0.3-0.5,0.5-1.1,0.5-1.9c0-0.8-0.2-1.4-0.5-1.9c-0.3-0.5-0.8-0.7-1.4-0.7c-0.6,0-1,0.2-1.4,0.7c-0.3,0.5-0.5,1.1-0.5,1.9
				c0,0.8,0.2,1.4,0.5,1.9C449.9,45.3,450.3,45.5,450.9,45.5z"/>
			<path d="M458.1,46.4c-0.9,0-1.7-0.3-2.2-1c-0.6-0.7-0.8-1.5-0.8-2.5s0.3-1.8,0.8-2.5c0.6-0.7,1.3-1,2.2-1c0.9,0,1.7,0.3,2.2,1
				c0.6,0.7,0.8,1.5,0.8,2.5s-0.3,1.8-0.8,2.5C459.8,46.1,459,46.4,458.1,46.4z M458.1,45.5c0.6,0,1-0.2,1.4-0.7
				c0.3-0.5,0.5-1.1,0.5-1.9c0-0.8-0.2-1.4-0.5-1.9c-0.3-0.5-0.8-0.7-1.4-0.7c-0.6,0-1,0.2-1.4,0.7c-0.3,0.5-0.5,1.1-0.5,1.9
				c0,0.8,0.2,1.4,0.5,1.9C457.1,45.3,457.5,45.5,458.1,45.5z"/>
			<path d="M467,44.8c-0.3,0.5-0.7,1-1.2,1.2c-0.5,0.3-0.9,0.4-1.3,0.4c-0.5,0-1-0.2-1.5-0.7c-0.4-0.5-0.7-1.2-0.7-2.2
				c0-0.8,0.1-1.4,0.4-2c0.3-0.6,0.7-1.1,1.2-1.4s1.1-0.5,1.8-0.5c0.2,0,0.5,0,0.9,0.1c0.1,0,0.2,0,0.3,0v-2.9h1.1v9.5H467V44.8z
				 M467,43.5v-2.8c-0.4-0.1-0.7-0.2-1.1-0.2c-0.7,0-1.2,0.3-1.7,0.8s-0.7,1.2-0.7,2.1c0,0.6,0.1,1.1,0.4,1.5
				c0.2,0.3,0.5,0.5,0.8,0.5c0.3,0,0.7-0.2,1.1-0.5S466.7,44.1,467,43.5z"/>
		</g>
	</g>
	<g>
		<path class="st12" d="M548,52h-68c-1.1,0-2-0.9-2-2V33c0-1.1,0.9-2,2-2h68c1.1,0,2,0.9,2,2v17C550,51.1,549.1,52,548,52z"/>
		<g>
			<path d="M487.7,45.2v1h-4.9v-9.1h4.8v0.9H484v3.1h3.3v0.9H484v3.2H487.7z"/>
			<path d="M490.4,46.2h-1.3l2.6-3.4l-2.4-3.1h1.4l1.7,2.2l1.7-2.2h1.2l-2.3,3l2.7,3.5h-1.4l-2-2.6L490.4,46.2z"/>
			<path d="M502.4,46.1c-0.7,0.2-1.4,0.4-2.1,0.4c-0.7,0-1.2-0.2-1.7-0.5s-0.9-0.7-1.2-1.2S497,43.6,497,43c0-1,0.3-1.8,1-2.5
				s1.4-1,2.3-1c0.7,0,1.4,0.1,2.1,0.4v1c-0.8-0.3-1.4-0.5-2-0.5c-0.4,0-0.8,0.1-1.1,0.3s-0.6,0.5-0.8,0.9s-0.3,0.8-0.3,1.3
				c0,0.6,0.2,1.2,0.6,1.7s0.9,0.8,1.7,0.8c0.2,0,0.5,0,0.7,0s0.7-0.2,1.3-0.4V46.1z"/>
			<path d="M509.5,45.8c-0.9,0.4-1.7,0.6-2.5,0.6c-0.6,0-1.1-0.1-1.6-0.4c-0.5-0.3-0.8-0.7-1.1-1.3S504,43.6,504,43
				c0-0.6,0.1-1.2,0.4-1.7s0.6-1,1.1-1.3c0.5-0.3,1-0.5,1.6-0.5c0.8,0,1.4,0.3,1.9,0.8c0.5,0.6,0.7,1.4,0.7,2.6v0.2h-4.5
				c0,0.5,0.1,0.9,0.3,1.2s0.4,0.7,0.7,0.8s0.7,0.3,1.1,0.3c0.7,0,1.5-0.2,2.3-0.7V45.8z M505.2,42.3h3.3v-0.2c0-0.5-0.1-1-0.4-1.3
				s-0.6-0.5-1-0.5c-0.4,0-0.8,0.2-1.1,0.5S505.3,41.7,505.2,42.3z"/>
			<path d="M513.1,46.2v-8.5h-2v-0.9h3v8.5h2v0.9H513.1z"/>
			<path d="M520.3,46.2v-8.5h-2v-0.9h3v8.5h2v0.9H520.3z"/>
			<path d="M531.2,45.8c-0.9,0.4-1.7,0.6-2.5,0.6c-0.6,0-1.1-0.1-1.6-0.4c-0.5-0.3-0.8-0.7-1.1-1.3s-0.4-1.1-0.4-1.7
				c0-0.6,0.1-1.2,0.4-1.7s0.6-1,1.1-1.3c0.5-0.3,1-0.5,1.6-0.5c0.8,0,1.4,0.3,1.9,0.8c0.5,0.6,0.7,1.4,0.7,2.6v0.2h-4.5
				c0,0.5,0.1,0.9,0.3,1.2s0.4,0.7,0.7,0.8s0.7,0.3,1.1,0.3c0.7,0,1.5-0.2,2.3-0.7V45.8z M526.8,42.3h3.3v-0.2c0-0.5-0.1-1-0.4-1.3
				s-0.6-0.5-1-0.5c-0.4,0-0.8,0.2-1.1,0.5S526.9,41.7,526.8,42.3z"/>
			<path d="M532.9,46.2v-6.5h1.1v1.4c0.3-0.5,0.7-0.9,1.1-1.2s0.9-0.4,1.3-0.4c0.4,0,0.7,0.1,1.1,0.3s0.5,0.5,0.7,0.8s0.2,1,0.2,2
				v3.7h-1.1v-3.8c0-0.6,0-1-0.1-1.2s-0.2-0.4-0.3-0.5s-0.3-0.2-0.5-0.2c-0.4,0-0.8,0.2-1.2,0.5s-0.8,0.8-1.1,1.4v3.8H532.9z"/>
			<path d="M545.6,46c-0.5,0.2-0.9,0.3-1.1,0.4s-0.5,0.1-0.7,0.1c-0.5,0-0.9-0.1-1.3-0.3s-0.7-0.4-0.9-0.8s-0.3-0.9-0.3-1.6v-2.6
				h-1.6v-0.9h1.6v-2.6h1.1v2.6h2.9v0.9h-2.9v2.6c0,0.5,0.1,0.9,0.2,1.1s0.3,0.4,0.5,0.5s0.5,0.2,0.7,0.2c0.5,0,1.1-0.2,1.7-0.5V46z
				"/>
		</g>
	</g>
</g>
</svg>
