<svg id="Capa_1" enable-background="new 0 0 512 512" height="512" viewBox="0 0 512 512" width="512" xmlns="http://www.w3.org/2000/svg"><g><g><g><path d="m421.684 415.898c0-32.213 12.097-61.598 31.992-83.868 1.645-1.842.318-4.763-2.151-4.763h-305.29c-48.949 0-88.631 39.681-88.631 88.631 0 48.949 39.681 88.631 88.631 88.631h305.29c2.47 0 3.797-2.921 2.151-4.763-19.895-22.27-31.992-51.655-31.992-83.868z" fill="#f6f1f1"/></g></g><g><g><path d="m453.663 499.752c-19.887-22.269-31.979-51.648-31.979-83.853 0-32.206 12.092-61.585 31.979-83.853 1.652-1.849.341-4.777-2.138-4.777h-56.864c2.479 0 3.79 2.928 2.138 4.777-19.887 22.269-31.979 51.648-31.979 83.853 0 32.206 12.092 61.585 31.979 83.853 1.652 1.849.341 4.777-2.138 4.777h56.864c2.48 0 3.79-2.928 2.138-4.777z" fill="#efe7e4"/></g></g><g><g><g><g><path d="m207.158 475.207-28.737-21.016-28.737 21.016c-2.685 1.963-6.462.046-6.462-3.28v-93.819h70.397v93.819c.001 3.326-3.777 5.243-6.461 3.28z" fill="#fcb143"/></g></g></g><g><g><g><path d="m178.421 378.108v76.083l28.737 21.016c2.685 1.963 6.462.046 6.462-3.28v-93.819z" fill="#fa9801"/></g></g></g></g><g><g><g><path d="m146.235 327.268h308.169v-304.453c0-8.475-6.87-15.345-15.345-15.345h-293.479c-48.588 0-87.976 39.388-87.976 87.976v320.452c0-48.949 39.682-88.63 88.631-88.63z" fill="#736e6e"/></g></g><g><g><path d="m57.604 415.899v3.662h.081c-.049-1.216-.081-2.435-.081-3.662z" fill="#465961"/></g></g></g><g><g><g><path d="m439.06 7.471h-51.008v210.027c0 23.979-19.439 43.418-43.418 43.418h-214.467c-30.007 0-56.528 14.915-72.563 37.733v117.25c0-48.949 39.681-88.631 88.631-88.631h308.169v-304.453c0-8.474-6.87-15.344-15.344-15.344z" fill="#595454"/></g></g></g><g><g><path d="m451.526 512h-305.291c-52.991 0-96.102-43.111-96.102-96.101 0-52.991 43.111-96.102 96.102-96.102h305.29c4.126 0 7.471 3.345 7.471 7.471s-3.344 7.471-7.471 7.471h-305.29c-44.752 0-81.16 36.408-81.16 81.16s36.408 81.16 81.16 81.16h305.291c4.126 0 7.471 3.345 7.471 7.471s-3.345 7.47-7.471 7.47z" fill="#736e6e"/></g></g><g><path d="m142.065 482.212c3.878 1.971 8.495 1.611 12.03-.975l24.326-17.791 24.326 17.791c3.525 2.578 8.134 2.952 12.029.975 3.894-1.977 6.314-5.917 6.314-10.285v-86.348h47.671c4.126 0 7.471-3.345 7.471-7.471s-3.344-7.471-7.471-7.471c0 0-138.88 0-143.363 0s-7.734 3.085-7.734 7.471c0 4.126 3.345 7.471 7.471 7.471h10.616v86.348c.001 4.367 2.42 8.308 6.314 10.285zm64.084-96.633v79.635l-23.318-17.053c-2.626-1.921-6.194-1.921-8.82 0l-23.318 17.054v-79.635h55.456z"/><path d="m461.875 22.815c0-12.58-10.234-22.815-22.815-22.815h-225.44c-4.126 0-7.471 3.345-7.471 7.471s3.345 7.471 7.471 7.471h225.44c4.341 0 7.874 3.532 7.874 7.874v296.982h-300.699c-32.402-.265-63.976 17.261-81.16 44.685v-88.809c0-4.126-3.345-7.471-7.471-7.471s-7.471 3.345-7.471 7.471v140.225c.031.995-.096 4.071.129 5.001 2.61 50.675 44.659 91.1 95.972 91.1h305.291c4.071 0 7.777-2.402 9.442-6.12 1.66-3.709.985-8.061-1.719-11.09-7.25-8.115-13.34-17.166-18.105-26.902-1.813-3.706-6.289-5.241-9.993-3.427-3.706 1.814-5.241 6.288-3.427 9.994 3.905 7.981 8.601 15.552 14.014 22.604h-295.502c-44.752 0-81.16-36.408-81.16-81.16 0-44.751 36.408-81.16 81.16-81.16h295.504c-17.814 23.216-27.525 51.674-27.525 81.16 0 6.428.462 12.892 1.375 19.209.589 4.084 4.378 6.921 8.461 6.327 4.084-.589 6.916-4.377 6.327-8.461-.81-5.613-1.221-11.358-1.221-17.074 0-29.151 10.687-57.168 30.093-78.892 2.066-2.314 2.937-5.4 2.497-8.382.081-.442.129-305.811.129-305.811z"/><path d="m57.604 244.912c4.126 0 7.471-3.345 7.471-7.471v-141.995c0-44.391 36.114-80.505 80.505-80.505h29.853c4.126 0 7.471-3.345 7.471-7.471s-3.345-7.47-7.471-7.47h-29.853c-52.63 0-95.447 42.817-95.447 95.446v141.995c0 4.127 3.345 7.471 7.471 7.471z"/><path d="m145.49 166.291 44.96 54.399c1.478 1.788 3.612 2.712 5.763 2.712 1.676 0 3.362-.561 4.755-1.712 3.18-2.629 3.628-7.338 1-10.518l-41.026-49.64 41.026-49.64c2.628-3.18 2.181-7.889-1-10.518-3.181-2.628-7.889-2.18-10.518 1l-44.96 54.399c-2.282 2.762-2.282 6.756 0 9.518z"/><path d="m314.891 221.689c1.393 1.151 3.08 1.713 4.756 1.712 2.151 0 4.285-.924 5.763-2.712l44.959-54.399c2.283-2.762 2.283-6.756 0-9.518l-44.959-54.399c-2.628-3.181-7.338-3.627-10.518-1-3.18 2.628-3.627 7.338-.999 10.518l41.026 49.64-41.026 49.64c-2.63 3.181-2.182 7.89.998 10.518z"/><path d="m232.172 223.403c2.803 0 5.491-1.586 6.764-4.291l51.218-108.798c1.757-3.733.156-8.184-3.578-9.941-3.732-1.759-8.185-.157-9.942 3.577l-51.217 108.798c-1.757 3.733-.156 8.184 3.577 9.941 1.029.485 2.112.714 3.178.714z"/><path d="m303.042 370.637c-4.126 0-7.471 3.345-7.471 7.471s3.344 7.471 7.471 7.471h43.002c4.126 0 7.471-3.345 7.471-7.471s-3.344-7.471-7.471-7.471z"/></g></g></svg>