<?xml version="1.0" encoding="utf-8"?>
<!-- Generator: Adobe Illustrator 23.1.1, SVG Export Plug-In . SVG Version: 6.00 Build 0)  -->
<svg version="1.1" id="Layer_1" xmlns="http://www.w3.org/2000/svg" xmlns:xlink="http://www.w3.org/1999/xlink" x="0px" y="0px"
	 viewBox="0 0 400 400" style="enable-background:new 0 0 400 400;" xml:space="preserve">
<style type="text/css">
	.st0{fill-rule:evenodd;clip-rule:evenodd;fill:#FFFFFF;}
	.st1{fill-rule:evenodd;clip-rule:evenodd;fill:#FDD55C;}
	.st2{fill-rule:evenodd;clip-rule:evenodd;fill:#40464A;}
	.st3{fill-rule:evenodd;clip-rule:evenodd;fill:#AFAFAF;}
	.st4{fill-rule:evenodd;clip-rule:evenodd;fill:#FE7443;}
	.st5{fill-rule:evenodd;clip-rule:evenodd;fill:#4BBDD7;}
</style>
<rect class="st0" width="400" height="400"/>
<g id="illustrations" transform="translate(-4063.000000, 0.000000)">
	<g transform="translate(9.000000, 31.000000)">
		<rect id="Rectangle-path" x="4086.5" y="34" class="st1" width="70.2" height="46.8"/>
		<g transform="translate(14.000000, 10.000000)">
			<g>
				<g>
					<path id="Shape" class="st2" d="M4098.9,51.6h-3.5V39.4c0-0.5-0.2-0.9-0.5-1.3c-0.3-0.3-0.8-0.5-1.3-0.5h-2.3
						c-0.5,0-0.9,0.2-1.3,0.5c-0.3,0.3-0.5,0.8-0.5,1.3v12.3h-3.5V39.4c0-1.4,0.5-2.7,1.5-3.7c1-1,2.3-1.5,3.7-1.5h2.3
						c1.4,0,2.7,0.5,3.7,1.5c1,1,1.5,2.3,1.5,3.7L4098.9,51.6L4098.9,51.6z"/>
					<rect x="4086.1" y="41.2" class="st2" width="12.8" height="3.5"/>
				</g>
				<path class="st2" d="M4109.6,51.6l-7.6,0V34.1h7.6c1.4,0,2.7,0.5,3.7,1.5c1,1,1.5,2.3,1.5,3.7c0,1.3-0.5,2.5-1.4,3.5
					c0.9,1,1.4,2.2,1.4,3.5c0,1.4-0.5,2.7-1.5,3.7C4112.3,51.1,4111,51.6,4109.6,51.6z M4105.5,48.2h4.1c0.5,0,0.9-0.2,1.3-0.5
					c0.3-0.3,0.5-0.8,0.5-1.3c0-0.5-0.2-0.9-0.5-1.3c-0.3-0.3-0.8-0.5-1.3-0.5h-4.1V48.2L4105.5,48.2z M4105.5,41.2h4.1
					c0.5,0,0.9-0.2,1.3-0.5c0.3-0.3,0.5-0.8,0.5-1.3c0-0.5-0.2-0.9-0.5-1.3s-0.8-0.5-1.3-0.5h-4.1V41.2L4105.5,41.2z"/>
				<path class="st2" d="M4125.5,51.6h-2.3c-1.4,0-2.7-0.5-3.7-1.5c-1-1-1.5-2.3-1.5-3.7v-7c0-1.4,0.5-2.7,1.5-3.7
					c1-1,2.3-1.5,3.7-1.5h2.3c1.4,0,2.7,0.5,3.7,1.5c1,1,1.5,2.3,1.5,3.7v1.7h-3.5v-1.7c0-0.5-0.2-0.9-0.5-1.3
					c-0.3-0.3-0.8-0.5-1.3-0.5h-2.3c-0.5,0-0.9,0.2-1.3,0.5c-0.3,0.3-0.5,0.8-0.5,1.3v7c0,0.5,0.2,0.9,0.5,1.3
					c0.3,0.3,0.8,0.5,1.3,0.5h2.3c0.5,0,0.9-0.2,1.3-0.5c0.3-0.3,0.5-0.8,0.5-1.3v-1.7h3.5v1.7c0,1.4-0.5,2.7-1.5,3.7
					C4128.2,51.1,4126.9,51.6,4125.5,51.6z"/>
			</g>
			<g transform="translate(0.000000, 23.000000)">
				<rect x="4086.3" y="34.3" class="st2" width="3.5" height="3.5"/>
				<rect x="4093.2" y="34.3" class="st2" width="3.5" height="3.5"/>
				<rect x="4100.1" y="34.3" class="st2" width="3.4" height="3.5"/>
			</g>
		</g>
	</g>
	<g transform="translate(30.000000, 130.000000)">
		<polygon class="st2" points="4094.5,55.4 4085.7,46.6 4094.5,37.9 4097,40.3 4090.6,46.6 4097,53 		"/>
		<polygon class="st2" points="4112.8,55.4 4110.3,53 4116.7,46.6 4110.3,40.3 4112.8,37.9 4121.5,46.6 		"/>
		
			<rect x="4091" y="44.9" transform="matrix(0.2729 -0.962 0.962 0.2729 2938.8584 3981.7673)" class="st2" width="25.3" height="3.5"/>
	</g>
	<g transform="translate(72.000000, 37.000000)">
		<path class="st3" d="M4284.1,292.1c0,2.4-0.9,4.8-2.7,6.6c-1.8,1.8-4.2,2.7-6.6,2.7h-177.9c-2.4,0-4.8-0.9-6.6-2.7
			c-1.8-1.8-2.7-4.2-2.7-6.6V168.5h196.6L4284.1,292.1L4284.1,292.1z"/>
		<path class="st2" d="M4274.8,303.1h-177.9c-3,0-5.7-1.2-7.8-3.2c-2.1-2.1-3.2-4.9-3.2-7.8V44.9c0-3,1.2-5.7,3.2-7.8
			c2.1-2.1,4.9-3.2,7.8-3.2h177.9c3,0,5.7,1.2,7.8,3.2c2.1,2.1,3.2,4.9,3.2,7.8v247.2c0,3-1.2,5.7-3.2,7.8
			C4280.5,302,4277.7,303.1,4274.8,303.1z M4096.9,37.2c-2,0-4,0.8-5.4,2.2c-1.4,1.4-2.2,3.4-2.2,5.4v247.2c0,2,0.8,4,2.2,5.4
			c1.4,1.4,3.4,2.2,5.4,2.2h177.9c2,0,4-0.8,5.4-2.2c1.4-1.4,2.2-3.4,2.2-5.4V44.9c0-2-0.8-4-2.2-5.4c-1.4-1.4-3.4-2.2-5.4-2.2
			L4096.9,37.2L4096.9,37.2z"/>
		<g transform="translate(2.000000, 133.000000)">
			<rect x="4085.5" y="33.7" class="st2" width="12.9" height="3.5"/>
			<rect x="4108.2" y="33.7" class="st2" width="151.2" height="3.5"/>
			<rect x="4269.3" y="33.7" class="st2" width="12.9" height="3.5"/>
		</g>
		<g transform="translate(13.000000, 126.000000)">
			<rect x="4087.4" y="42.5" class="st0" width="9.8" height="6.4"/>
			<rect x="4087.4" y="36" class="st3" width="9.8" height="6.4"/>
			<path class="st2" d="M4098.9,50.6h-13.3V34.3h13.3V50.6z M4089.1,47.2h6.4v-9.4h-6.4V47.2z"/>
		</g>
		<g transform="translate(174.000000, 126.000000)">
			<rect x="4087.4" y="42.5" class="st0" width="9.8" height="6.4"/>
			<rect x="4087.4" y="36" class="st3" width="9.8" height="6.4"/>
			<path class="st2" d="M4099,50.6h-13.3V34.3h13.3V50.6z M4089.1,47.2h6.4v-9.4h-6.4V47.2L4089.1,47.2z"/>
		</g>
		<g transform="translate(13.000000, 152.000000)">
			<g>
				<rect x="4085.7" y="34.1" class="st0" width="13.1" height="10.3"/>
				<rect x="4103.6" y="34.1" class="st0" width="13.1" height="10.3"/>
				<rect x="4121.5" y="34.1" class="st0" width="13.1" height="10.3"/>
				<rect x="4139.4" y="34.1" class="st0" width="13.1" height="10.3"/>
				<rect x="4157.3" y="34.1" class="st0" width="13.1" height="10.3"/>
				<rect x="4175.2" y="34.1" class="st0" width="13.1" height="10.3"/>
				<rect x="4193.1" y="34.1" class="st0" width="13.1" height="10.3"/>
				<rect x="4211" y="34.1" class="st0" width="13.1" height="10.3"/>
				<rect x="4228.9" y="34.1" class="st0" width="13.1" height="10.3"/>
				<rect x="4246.8" y="34.1" class="st0" width="13.1" height="10.3"/>
			</g>
			<g transform="translate(0.000000, 15.000000)">
				<rect x="4085.7" y="34.2" class="st0" width="13.1" height="10.3"/>
				<rect x="4103.6" y="34.2" class="st0" width="13.1" height="10.3"/>
				<rect x="4121.5" y="34.2" class="st0" width="13.1" height="10.3"/>
				<rect x="4139.4" y="34.2" class="st0" width="13.1" height="10.3"/>
				<rect x="4157.3" y="34.2" class="st0" width="13.1" height="10.3"/>
				<rect x="4175.2" y="34.2" class="st0" width="13.1" height="10.3"/>
				<rect x="4193.1" y="34.2" class="st0" width="13.1" height="10.3"/>
				<rect x="4211" y="34.2" class="st0" width="13.1" height="10.3"/>
				<rect x="4228.9" y="34.2" class="st0" width="13.1" height="10.3"/>
				<rect x="4246.8" y="34.2" class="st0" width="13.1" height="10.3"/>
			</g>
			<g transform="translate(0.000000, 30.000000)">
				<rect x="4085.7" y="34.3" class="st0" width="13.1" height="10.3"/>
				<rect x="4103.6" y="34.3" class="st0" width="13.1" height="10.3"/>
				<rect x="4121.5" y="34.3" class="st0" width="13.1" height="10.3"/>
				<rect x="4139.4" y="34.3" class="st0" width="13.1" height="10.3"/>
				<rect x="4157.3" y="34.3" class="st0" width="13.1" height="10.3"/>
				<rect x="4175.2" y="34.3" class="st0" width="13.1" height="10.3"/>
				<rect x="4193.1" y="34.3" class="st0" width="13.1" height="10.3"/>
				<rect x="4211" y="34.3" class="st0" width="13.1" height="10.3"/>
				<rect x="4228.9" y="34.3" class="st0" width="13.1" height="10.3"/>
				<rect x="4246.8" y="34.3" class="st0" width="13.1" height="10.3"/>
			</g>
			<g transform="translate(0.000000, 45.000000)">
				<rect x="4103.6" y="34.4" class="st0" width="13.1" height="10.3"/>
				<rect x="4085.7" y="34.4" class="st0" width="13.1" height="10.3"/>
				<rect x="4121.5" y="34.4" class="st0" width="13.1" height="10.3"/>
				<rect x="4139.4" y="34.4" class="st0" width="66.8" height="10.3"/>
				<rect x="4211" y="34.4" class="st0" width="13.1" height="10.3"/>
				<rect x="4228.9" y="34.4" class="st0" width="13.1" height="10.3"/>
			</g>
		</g>
		<rect x="4152.4" y="253.4" class="st0" width="66.8" height="34.6"/>
		<rect x="4098.7" y="46.8" class="st4" width="174.1" height="104"/>
		<g transform="translate(25.000000, 25.000000)">
			<g transform="translate(14.000000, 0.000000)">
				<g>
					<rect x="4086.2" y="34.1" class="st2" width="26" height="3.5"/>
					<rect x="4112.2" y="47.9" class="st2" width="14.8" height="3.5"/>
					<rect x="4112.2" y="54.8" class="st2" width="29.2" height="3.5"/>
					<rect x="4086.2" y="41" class="st2" width="55.3" height="3.5"/>
					<rect x="4201.7" y="41" class="st2" width="12.5" height="3.5"/>
					<rect x="4135.6" y="47.9" class="st2" width="43.6" height="3.5"/>
					<rect x="4150" y="54.8" class="st2" width="55.3" height="3.5"/>
					<rect x="4150" y="41" class="st2" width="43.1" height="3.5"/>
				</g>
				<g transform="translate(0.000000, 28.000000)">
					<rect x="4086.2" y="33.7" class="st2" width="26" height="3.5"/>
					<rect x="4112.2" y="47.5" class="st2" width="14.8" height="3.5"/>
					<rect x="4112.2" y="54.4" class="st2" width="29.2" height="3.5"/>
					<rect x="4086.2" y="40.6" class="st2" width="55.3" height="3.5"/>
					<rect x="4201.7" y="40.6" class="st2" width="12.5" height="3.5"/>
					<rect x="4135.6" y="47.5" class="st2" width="43.6" height="3.5"/>
					<rect x="4150" y="54.4" class="st2" width="55.3" height="3.5"/>
					<rect x="4150" y="40.6" class="st2" width="43.1" height="3.5"/>
				</g>
				<g transform="translate(0.000000, 55.000000)">
					<rect x="4086.2" y="34.3" class="st2" width="26" height="3.5"/>
					<rect x="4112.2" y="48.1" class="st2" width="14.8" height="3.5"/>
					<rect x="4112.2" y="55" class="st2" width="29.2" height="3.5"/>
					<rect x="4086.2" y="41.2" class="st2" width="55.3" height="3.5"/>
					<rect x="4201.7" y="41.2" class="st2" width="12.5" height="3.5"/>
					<rect x="4135.6" y="48.1" class="st2" width="43.6" height="3.5"/>
					<rect x="4150" y="55" class="st2" width="55.3" height="3.5"/>
					<rect x="4150" y="41.2" class="st2" width="43.1" height="3.5"/>
				</g>
			</g>
			<g>
				<rect x="4085.9" y="34.1" class="st0" width="5.7" height="3.5"/>
				<rect x="4085.9" y="47.9" class="st0" width="5.7" height="3.5"/>
				<rect x="4085.9" y="54.8" class="st0" width="5.7" height="3.5"/>
				<rect x="4085.9" y="75.5" class="st0" width="5.7" height="3.5"/>
				<rect x="4085.9" y="82.4" class="st0" width="5.7" height="3.5"/>
				<rect x="4085.9" y="41" class="st0" width="5.7" height="3.5"/>
				<rect x="4085.9" y="61.7" class="st0" width="5.7" height="3.5"/>
				<rect x="4085.9" y="68.6" class="st0" width="5.7" height="3.5"/>
				<rect x="4085.9" y="89.3" class="st0" width="5.7" height="3.5"/>
				<rect x="4085.9" y="103.1" class="st0" width="5.7" height="3.5"/>
				<rect x="4085.9" y="110" class="st0" width="5.7" height="3.5"/>
				<rect x="4085.9" y="96.2" class="st0" width="5.7" height="3.5"/>
			</g>
		</g>
	</g>
	<g transform="translate(286.000000, 251.000000)">
		<path class="st3" d="M4116.3,41c-1.4-1.4-2.9-2.4-4.5-3.2c1.1,2.3,1.7,4.9,1.7,7.4v27.1c0,4.3-1.6,8.6-4.9,11.9
			c-3.3,3.3-7.6,4.9-11.9,4.9c-2.5,0-5.1-0.6-7.4-1.7c0.8,1.6,1.9,3.2,3.2,4.5c3.3,3.3,7.6,4.9,11.9,4.9c4.3,0,8.6-1.6,11.9-4.9
			c3.3-3.3,4.9-7.6,4.9-11.9V52.9C4121.2,48.6,4119.6,44.3,4116.3,41z"/>
		<path class="st2" d="M4104.3,98.6c-5,0-9.6-1.9-13.1-5.4c-3.5-3.5-5.4-8.2-5.4-13.2V52.9c0-5,1.9-9.6,5.4-13.1
			c3.5-3.5,8.2-5.4,13.1-5.4c5,0,9.6,1.9,13.1,5.4c3.5,3.5,5.4,8.2,5.4,13.1V80c0,5-1.9,9.6-5.4,13.1
			C4114,96.7,4109.3,98.6,4104.3,98.6z M4104.3,37.7c-4,0-7.8,1.6-10.7,4.4c-2.9,2.9-4.4,6.7-4.4,10.7V80c0,4,1.6,7.8,4.4,10.7
			c2.9,2.9,6.7,4.4,10.7,4.4c4,0,7.8-1.6,10.7-4.4c2.9-2.9,4.4-6.7,4.4-10.7V52.9c0-4-1.6-7.8-4.4-10.7
			C4112.2,39.3,4108.4,37.7,4104.3,37.7z"/>
		<path class="st2" d="M4104.3,58.7c-3.2,0-5.8-2.6-5.8-5.8c0-3.2,2.6-5.8,5.8-5.8s5.8,2.6,5.8,5.8
			C4110.1,56.1,4107.5,58.7,4104.3,58.7z M4104.3,50.5c-1.3,0-2.3,1-2.3,2.3c0,1.3,1,2.3,2.3,2.3c1.3,0,2.3-1,2.3-2.3
			C4106.7,51.6,4105.6,50.5,4104.3,50.5z"/>
	</g>
	<g transform="translate(0.000000, 188.000000)">
		<circle id="Oval" class="st5" cx="4112.9" cy="61.7" r="27.4"/>
		<g transform="translate(10.000000, 19.000000)">
			<path class="st2" d="M4093.5,51.4h-2.3c-1.4,0-2.7-0.5-3.7-1.5c-1-1-1.5-2.3-1.5-3.7v-7c0-1.4,0.5-2.7,1.5-3.7
				c1-1,2.3-1.5,3.7-1.5h2.3c1.4,0,2.7,0.5,3.7,1.5c1,1,1.5,2.3,1.5,3.7v1.7h-3.5v-1.7c0-0.5-0.2-0.9-0.5-1.3
				c-0.3-0.3-0.8-0.5-1.3-0.5h-2.3c-0.5,0-0.9,0.2-1.3,0.5c-0.3,0.3-0.5,0.8-0.5,1.3v7c0,0.5,0.2,0.9,0.5,1.3
				c0.3,0.3,0.8,0.5,1.3,0.5h2.3c0.5,0,0.9-0.2,1.3-0.5c0.3-0.3,0.5-0.8,0.5-1.3v-1.7h3.5v1.7c0,1.4-0.5,2.7-1.5,3.7
				C4096.2,50.9,4094.9,51.4,4093.5,51.4z"/>
			<g transform="translate(16.000000, 0.000000)">
				<rect x="4089.8" y="33.9" class="st2" width="3.5" height="17.5"/>
				<rect x="4096.9" y="33.9" class="st2" width="3.5" height="17.5"/>
				<rect x="4086.3" y="44.4" class="st2" width="17.5" height="3.5"/>
				<rect x="4086.3" y="37.4" class="st2" width="17.5" height="3.5"/>
			</g>
		</g>
	</g>
	<g transform="translate(37.000000, 283.000000)">
		<rect x="4086.1" y="34" class="st4" width="93.6" height="46.8"/>
		<g transform="translate(15.000000, 15.000000)">
			<path class="st0" d="M4150,51.2h-7.6c-1.4,0-2.7-0.5-3.7-1.5c-1-1-1.5-2.3-1.5-3.7V33.7h3.5V46c0,0.5,0.2,0.9,0.5,1.3
				c0.3,0.3,0.8,0.5,1.3,0.5h7.6V51.2L4150,51.2z"/>
			<path class="st0" d="M4133.6,51.2h-3.5v-11l-2.8,3.4c-0.7,0.8-2,0.8-2.7,0l-2.8-3.4v11h-3.5V35.4c0-0.7,0.5-1.4,1.1-1.6
				c0.7-0.2,1.4,0,1.9,0.5l4.5,5.4l4.5-5.4c0.5-0.6,1.2-0.8,1.9-0.5c0.7,0.2,1.1,0.9,1.1,1.6L4133.6,51.2L4133.6,51.2z"/>
			<g transform="translate(16.000000, 0.000000)">
				<rect x="4090.8" y="33.7" class="st0" width="3.5" height="17.5"/>
				<rect x="4086.1" y="33.7" class="st0" width="12.8" height="3.5"/>
			</g>
			<g>
				<rect x="4085.7" y="33.7" class="st0" width="3.5" height="17.5"/>
				<rect x="4095.1" y="33.7" class="st0" width="3.5" height="17.5"/>
				<rect x="4085.7" y="40.7" class="st0" width="12.8" height="3.5"/>
			</g>
		</g>
	</g>
	<g transform="translate(284.000000, 194.000000)">
		<rect x="4086.3" y="33.6" class="st1" width="70.2" height="37.5"/>
		<g transform="translate(13.000000, 10.000000)">
			<path class="st2" d="M4093.2,51h-2.3c-1.4,0-2.7-0.5-3.7-1.5c-1-1-1.5-2.3-1.5-3.7v-7c0-1.4,0.5-2.7,1.5-3.7c1-1,2.3-1.5,3.7-1.5
				h2.3c1.4,0,2.7,0.5,3.7,1.5c1,1,1.5,2.3,1.5,3.7v1.7h-3.5v-1.7c0-0.5-0.2-0.9-0.5-1.3c-0.3-0.3-0.8-0.5-1.3-0.5h-2.3
				c-0.5,0-0.9,0.2-1.3,0.5c-0.3,0.3-0.5,0.8-0.5,1.3v7c0,0.5,0.2,0.9,0.5,1.3c0.3,0.3,0.8,0.5,1.3,0.5h2.3c0.5,0,0.9-0.2,1.3-0.5
				c0.3-0.3,0.5-0.8,0.5-1.3v-1.7h3.5v1.7c0,1.4-0.5,2.7-1.5,3.7C4095.9,50.5,4094.6,51,4093.2,51z"/>
			<g transform="translate(16.000000, 2.000000)">
				<rect x="4090.7" y="33.9" class="st2" width="3.5" height="12.8"/>
				<rect x="4086" y="38.6" class="st2" width="12.8" height="3.5"/>
			</g>
			<g transform="translate(32.000000, 2.000000)">
				<rect x="4091" y="33.9" class="st2" width="3.5" height="12.8"/>
				<rect x="4086.4" y="38.6" class="st2" width="12.8" height="3.5"/>
			</g>
		</g>
	</g>
	<g transform="translate(3.000000, 105.000000)">
		<path class="st2" d="M4108.2,49.6c-4.4,0-7.9-3.5-7.9-7.9c0-4.4,3.5-7.9,7.9-7.9c4.4,0,7.9,3.5,7.9,7.9
			C4116.1,46.1,4112.6,49.6,4108.2,49.6z M4108.2,37.3c-2.5,0-4.5,2-4.5,4.5c0,2.5,2,4.5,4.5,4.5s4.5-2,4.5-4.5
			C4112.7,39.3,4110.7,37.3,4108.2,37.3z"/>
		<rect x="4093.2" y="33.8" class="st2" width="3.5" height="15.8"/>
		<rect x="4086.2" y="33.8" class="st2" width="3.5" height="15.8"/>
	</g>
	<g transform="translate(108.000000, 13.000000)">
		<path class="st2" d="M4094.1,49.7c-4.4,0-7.9-3.5-7.9-7.9c0-4.4,3.5-7.9,7.9-7.9s7.9,3.5,7.9,7.9
			C4102,46.1,4098.5,49.7,4094.1,49.7z M4094.1,37.3c-2.5,0-4.5,2-4.5,4.5s2,4.5,4.5,4.5s4.5-2,4.5-4.5S4096.6,37.3,4094.1,37.3z"/>
		<rect x="4105.6" y="33.9" class="st2" width="3.5" height="15.8"/>
	</g>
	<g transform="translate(86.000000, 0.000000)">
		<rect x="4092.6" y="34.4" class="st2" width="3.5" height="15.8"/>
		<rect x="4085.5" y="34.4" class="st2" width="3.5" height="15.8"/>
	</g>
	<g transform="translate(299.000000, 112.000000)">
		<g>
			<g>
				<path class="st2" d="M4086.3,56.2v-3.5c0.9,0,1.6-0.7,1.6-1.6V39c0-2.8,2.3-5,5-5h2v3.5h-2c-0.9,0-1.6,0.7-1.6,1.6v12.1
					C4091.4,53.9,4089.1,56.2,4086.3,56.2z"/>
				<path class="st2" d="M4095,74.9h-2c-2.8,0-5-2.3-5-5V57.7c0-0.9-0.7-1.6-1.6-1.6v-3.5c2.8,0,5,2.3,5,5v12.1
					c0,0.9,0.7,1.6,1.6,1.6h2V74.9z"/>
			</g>
			<g transform="translate(29.000000, 0.000000)">
				<path class="st2" d="M4094.2,56.2c-2.8,0-5-2.3-5-5V39c0-0.9-0.7-1.6-1.6-1.6h-2V34h2c2.8,0,5,2.3,5,5v12.1
					c0,0.9,0.7,1.6,1.6,1.6V56.2z"/>
				<path class="st2" d="M4087.6,74.9h-2v-3.5h2c0.9,0,1.6-0.7,1.6-1.6V57.7c0-2.8,2.3-5,5-5v3.5c-0.9,0-1.6,0.7-1.6,1.6v12.1
					C4092.6,72.6,4090.3,74.9,4087.6,74.9z"/>
			</g>
		</g>
		<g transform="translate(10.000000, 19.000000)">
			<rect x="4086.1" y="33.7" class="st2" width="3.5" height="3.5"/>
			<rect x="4093" y="33.7" class="st2" width="3.5" height="3.5"/>
			<rect x="4099.9" y="33.7" class="st2" width="3.5" height="3.5"/>
		</g>
	</g>
	<g transform="translate(186.000000, 314.000000)">
		<g transform="translate(47.000000, 0.000000)">
			<polygon class="st2" points="4099.2,51.6 4086.3,51.6 4086.3,34.1 4099.2,34.1 4099.2,37.5 4089.8,37.5 4089.8,48.1 4099.2,48.1 
							"/>
			<rect x="4086.3" y="41.1" class="st2" width="8.1" height="3.5"/>
		</g>
		<path class="st2" d="M4109.1,51.6h-2.3c-1.4,0-2.7-0.5-3.7-1.5c-1-1-1.5-2.3-1.5-3.7v-7c0-1.4,0.5-2.7,1.5-3.7
			c1-1,2.3-1.5,3.7-1.5h2.3c1.4,0,2.7,0.5,3.7,1.5c1,1,1.5,2.3,1.5,3.7v7c0,1.4-0.5,2.7-1.5,3.7C4111.8,51,4110.5,51.6,4109.1,51.6z
			 M4106.7,37.5c-0.5,0-0.9,0.2-1.3,0.5c-0.3,0.3-0.5,0.8-0.5,1.3v7c0,0.5,0.2,0.9,0.5,1.3c0.3,0.3,0.8,0.5,1.3,0.5h2.3
			c0.5,0,0.9-0.2,1.3-0.5c0.3-0.3,0.5-0.8,0.5-1.3v-7c0-0.5-0.2-0.9-0.5-1.3c-0.3-0.3-0.8-0.5-1.3-0.5H4106.7z"/>
		<path class="st2" d="M4093.2,51.6h-2.3c-1.4,0-2.7-0.5-3.7-1.5c-1-1-1.5-2.3-1.5-3.7v-7c0-1.4,0.5-2.7,1.5-3.7
			c1-1,2.3-1.5,3.7-1.5h2.3c1.4,0,2.7,0.5,3.7,1.5c1,1,1.5,2.3,1.5,3.7v1.7h-3.5v-1.7c0-0.5-0.2-0.9-0.5-1.3
			c-0.3-0.3-0.8-0.5-1.3-0.5h-2.3c-0.5,0-0.9,0.2-1.3,0.5c-0.3,0.3-0.5,0.8-0.5,1.3v7c0,0.5,0.2,0.9,0.5,1.3
			c0.3,0.3,0.8,0.5,1.3,0.5h2.3c0.5,0,0.9-0.2,1.3-0.5c0.3-0.3,0.5-0.8,0.5-1.3v-1.7h3.5v1.7c0,1.4-0.5,2.7-1.5,3.7
			C4095.9,51,4094.6,51.6,4093.2,51.6z"/>
		<path class="st2" d="M4125,51.6h-7.6V34.1h7.6c1.4,0,2.7,0.5,3.7,1.5c1,1,1.5,2.3,1.5,3.7v7c0,1.4-0.5,2.7-1.5,3.7
			C4127.7,51,4126.4,51.6,4125,51.6z M4120.9,48.1h4.1c0.5,0,0.9-0.2,1.3-0.5c0.3-0.3,0.5-0.8,0.5-1.3v-7c0-0.5-0.2-0.9-0.5-1.3
			c-0.3-0.3-0.8-0.5-1.3-0.5h-4.1V48.1z"/>
	</g>
	<g transform="translate(263.000000, 12.000000)">
		<rect x="4086.2" y="34.5" class="st3" width="70.2" height="51.5"/>
		<g transform="translate(13.000000, 17.000000)">
			<path class="st2" d="M4089,52h-3.5V34.5h7.6c1.4,0,2.7,0.5,3.7,1.5c1,1,1.5,2.3,1.5,3.7c0,1.4-0.5,2.7-1.5,3.7
				c-1,1-2.3,1.5-3.7,1.5h-4.1V52L4089,52z M4089,41.5h4.1c0.5,0,0.9-0.2,1.3-0.5c0.3-0.3,0.5-0.8,0.5-1.3c0-0.5-0.2-0.9-0.5-1.3
				c-0.3-0.3-0.8-0.5-1.3-0.5h-4.1V41.5z"/>
			<path class="st2" d="M4121.8,52h-3.5V34.5h7.6c1.4,0,2.7,0.5,3.7,1.5c1,1,1.5,2.3,1.5,3.7c0,1.4-0.5,2.7-1.5,3.7
				c-1,1-2.3,1.5-3.7,1.5h-4.1V52z M4121.8,41.5h4.1c0.5,0,0.9-0.2,1.3-0.5c0.3-0.3,0.5-0.8,0.5-1.3c0-0.5-0.2-0.9-0.5-1.3
				c-0.3-0.3-0.8-0.5-1.3-0.5h-4.1V41.5z"/>
			<g transform="translate(16.000000, 0.000000)">
				<rect x="4085.9" y="34.5" class="st2" width="3.5" height="17.5"/>
				<rect x="4095.3" y="34.5" class="st2" width="3.5" height="17.5"/>
				<rect x="4085.9" y="41.5" class="st2" width="12.8" height="3.5"/>
			</g>
		</g>
	</g>
</g>
</svg>
